<svg xmlns="http://www.w3.org/2000/svg" xmlns:xlink="http://www.w3.org/1999/xlink" contentStyleType="text/css" data-diagram-type="DESCRIPTION" height="1455px" preserveAspectRatio="none" style="width:496px;height:1455px;background:#FFFFFF;" version="1.1" viewBox="0 0 496 1455" width="496px" zoomAndPan="magnify"><defs/><g><!--cluster Beauty Scheduler--><g class="cluster" data-entity="Beauty Scheduler" data-source-line="5" data-uid="ent0004" id="cluster_Beauty Scheduler"><rect fill="none" height="1442" rx="2.5" ry="2.5" style="stroke:#181818;stroke-width:1;" width="333.06" x="157.21" y="7"/><text fill="#000000" font-family="sans-serif" font-size="14" font-weight="bold" lengthAdjust="spacing" textLength="121.404" x="263.038" y="23.9659">Beauty Scheduler</text></g><!--entity UC1--><g class="entity" data-entity="UC1" data-source-line="6" data-uid="ent0005" id="entity_UC1"><ellipse cx="323.7374" cy="298.9995" fill="#F1F1F1" rx="108.4974" ry="33.8695" style="stroke:#181818;stroke-width:0.5;"/><text fill="#000000" font-family="sans-serif" font-size="14" lengthAdjust="spacing" textLength="39.6058" x="303.9345" y="284.2466">UC-01</text><text fill="#000000" font-family="sans-serif" font-size="14" lengthAdjust="spacing" textLength="195.4953" x="225.9898" y="303.3146">&#1047;&#1072;&#1075;&#1088;&#1091;&#1079;&#1080;&#1090;&#1100; &#1076;&#1072;&#1085;&#1085;&#1099;&#1077; (snapshot)</text><text fill="#000000" font-family="sans-serif" font-size="14" lengthAdjust="spacing" textLength="103.7116" x="271.8816" y="322.3825">(GET /snapshot)</text></g><!--entity UC2--><g class="entity" data-entity="UC2" data-source-line="7" data-uid="ent0006" id="entity_UC2"><ellipse cx="323.737" cy="1398.9983" fill="#F1F1F1" rx="89.367" ry="34.0483" style="stroke:#181818;stroke-width:0.5;"/><text fill="#000000" font-family="sans-serif" font-size="14" lengthAdjust="spacing" textLength="39.6058" x="303.9341" y="1384.3451">UC-02</text><text fill="#000000" font-family="sans-serif" font-size="14" lengthAdjust="spacing" textLength="159.1234" x="244.1753" y="1403.413">&#1057;&#1073;&#1088;&#1086;&#1089;&#1080;&#1090;&#1100; &#1076;&#1077;&#1084;&#1086;-&#1076;&#1072;&#1085;&#1085;&#1099;&#1077;</text><text fill="#000000" font-family="sans-serif" font-size="14" lengthAdjust="spacing" textLength="85.4557" x="281.0092" y="1422.4809">(POST /reset)</text></g><!--entity UC3--><g class="entity" data-entity="UC3" data-source-line="8" data-uid="ent0007" id="entity_UC3"><ellipse cx="323.7397" cy="80.9996" fill="#F1F1F1" rx="108.9697" ry="36.1896" style="stroke:#181818;stroke-width:0.5;"/><text fill="#000000" font-family="sans-serif" font-size="14" lengthAdjust="spacing" textLength="39.6058" x="303.9368" y="63.9626">UC-03</text><text fill="#000000" font-family="sans-serif" font-size="14" lengthAdjust="spacing" textLength="182.6433" x="232.4181" y="83.0305">&#1057;&#1086;&#1079;&#1076;&#1072;&#1090;&#1100;/&#1086;&#1073;&#1085;&#1086;&#1074;&#1080;&#1090;&#1100; &#1082;&#1083;&#1080;&#1077;&#1085;&#1090;&#1072;</text><text fill="#000000" font-family="sans-serif" font-size="14" lengthAdjust="spacing" textLength="142.2814" x="252.599" y="102.0984">(POST /clients/upsert)</text></g><!--entity UC4--><g class="entity" data-entity="UC4" data-source-line="9" data-uid="ent0008" id="entity_UC4"><ellipse cx="323.7397" cy="190.9977" fill="#F1F1F1" rx="94.0597" ry="39.0777" style="stroke:#181818;stroke-width:0.5;"/><text fill="#000000" font-family="sans-serif" font-size="14" lengthAdjust="spacing" textLength="39.6058" x="303.9368" y="171.3514">UC-04</text><text fill="#000000" font-family="sans-serif" font-size="14" lengthAdjust="spacing" textLength="104.4956" x="271.4919" y="190.4193">&#1057;&#1086;&#1079;&#1076;&#1072;&#1090;&#1100; &#1079;&#1072;&#1087;&#1080;&#1089;&#1100;</text><text fill="#000000" font-family="sans-serif" font-size="14" lengthAdjust="spacing" textLength="144.3815" x="251.549" y="209.4872">(POST /appointments)</text></g><!--entity UC5--><g class="entity" data-entity="UC5" data-source-line="10" data-uid="ent0009" id="entity_UC5"><ellipse cx="323.7373" cy="1291.0043" fill="#F1F1F1" rx="150.5273" ry="38.8743" style="stroke:#181818;stroke-width:0.5;"/><text fill="#000000" font-family="sans-serif" font-size="14" lengthAdjust="spacing" textLength="39.6058" x="303.9344" y="1271.0226">UC-05</text><text fill="#000000" font-family="sans-serif" font-size="14" lengthAdjust="spacing" textLength="163.7154" x="241.8796" y="1290.0905">&#1048;&#1079;&#1084;&#1077;&#1085;&#1080;&#1090;&#1100; &#1089;&#1090;&#1072;&#1090;&#1091;&#1089; &#1079;&#1072;&#1087;&#1080;&#1089;&#1080;</text><text fill="#000000" font-family="sans-serif" font-size="14" lengthAdjust="spacing" textLength="235.2411" x="206.1168" y="1309.1584">(PATCH /appointments/${id}/status)</text></g><!--entity UC6--><g class="entity" data-entity="UC6" data-source-line="11" data-uid="ent0010" id="entity_UC6"><ellipse cx="323.7406" cy="1180.0038" fill="#F1F1F1" rx="77.6706" ry="37.1738" style="stroke:#181818;stroke-width:0.5;"/><text fill="#000000" font-family="sans-serif" font-size="14" lengthAdjust="spacing" textLength="39.6058" x="303.9377" y="1162.6216">UC-06</text><text fill="#000000" font-family="sans-serif" font-size="14" lengthAdjust="spacing" textLength="124.9915" x="261.2449" y="1181.6895">&#1044;&#1086;&#1073;&#1072;&#1074;&#1080;&#1090;&#1100; &#1084;&#1072;&#1089;&#1090;&#1077;&#1088;&#1072;</text><text fill="#000000" font-family="sans-serif" font-size="14" lengthAdjust="spacing" textLength="105.2096" x="271.1358" y="1200.7574">(POST /masters)</text></g><!--entity UC7--><g class="entity" data-entity="UC7" data-source-line="12" data-uid="ent0011" id="entity_UC7"><ellipse cx="323.7403" cy="1069.0042" fill="#F1F1F1" rx="127.5303" ry="38.9242" style="stroke:#181818;stroke-width:0.5;"/><text fill="#000000" font-family="sans-serif" font-size="14" lengthAdjust="spacing" textLength="39.6058" x="303.9374" y="1049.105">UC-07</text><text fill="#000000" font-family="sans-serif" font-size="14" lengthAdjust="spacing" textLength="123.7315" x="261.8746" y="1068.173">&#1042;&#1082;&#1083;/&#1074;&#1099;&#1082;&#1083; &#1084;&#1072;&#1089;&#1090;&#1077;&#1088;&#1072;</text><text fill="#000000" font-family="sans-serif" font-size="14" lengthAdjust="spacing" textLength="198.2952" x="224.5927" y="1087.2409">(PATCH /masters/${id}/toggle)</text></g><!--entity UC8--><g class="entity" data-entity="UC8" data-source-line="13" data-uid="ent0012" id="entity_UC8"><ellipse cx="323.7446" cy="956.004" fill="#F1F1F1" rx="100.7046" ry="39.034" style="stroke:#181818;stroke-width:0.5;"/><text fill="#000000" font-family="sans-serif" font-size="14" lengthAdjust="spacing" textLength="39.6058" x="303.9417" y="936.2858">UC-08</text><text fill="#000000" font-family="sans-serif" font-size="14" lengthAdjust="spacing" textLength="115.5556" x="265.9668" y="955.3537">&#1059;&#1076;&#1072;&#1083;&#1080;&#1090;&#1100; &#1084;&#1072;&#1089;&#1090;&#1077;&#1088;&#1072;</text><text fill="#000000" font-family="sans-serif" font-size="14" lengthAdjust="spacing" textLength="155.1054" x="246.1919" y="974.4216">(DELETE /masters/${id})</text></g><!--entity UC9--><g class="entity" data-entity="UC9" data-source-line="14" data-uid="ent0013" id="entity_UC9"><ellipse cx="323.7361" cy="844.0034" fill="#F1F1F1" rx="72.2061" ry="38.4534" style="stroke:#181818;stroke-width:0.5;"/><text fill="#000000" font-family="sans-serif" font-size="14" lengthAdjust="spacing" textLength="39.6058" x="303.9332" y="825.6003">UC-09</text><text fill="#000000" font-family="sans-serif" font-size="14" lengthAdjust="spacing" textLength="111.6636" x="267.9043" y="844.6683">&#1044;&#1086;&#1073;&#1072;&#1074;&#1080;&#1090;&#1100; &#1091;&#1089;&#1083;&#1091;&#1075;&#1091;</text><text fill="#000000" font-family="sans-serif" font-size="14" lengthAdjust="spacing" textLength="104.5516" x="271.4603" y="863.7362">(POST /services)</text></g><!--entity UC10--><g class="entity" data-entity="UC10" data-source-line="15" data-uid="ent0014" id="entity_UC10"><ellipse cx="323.7411" cy="731.9954" fill="#F1F1F1" rx="127.1211" ry="38.9254" style="stroke:#181818;stroke-width:0.5;"/><text fill="#000000" font-family="sans-serif" font-size="14" lengthAdjust="spacing" textLength="39.6058" x="303.9381" y="712.0981">UC-10</text><text fill="#000000" font-family="sans-serif" font-size="14" lengthAdjust="spacing" textLength="110.4036" x="268.5393" y="731.166">&#1042;&#1082;&#1083;/&#1074;&#1099;&#1082;&#1083; &#1091;&#1089;&#1083;&#1091;&#1075;&#1091;</text><text fill="#000000" font-family="sans-serif" font-size="14" lengthAdjust="spacing" textLength="197.6372" x="224.9225" y="750.2339">(PATCH /services/${id}/toggle)</text></g><!--entity UC11--><g class="entity" data-entity="UC11" data-source-line="16" data-uid="ent0015" id="entity_UC11"><ellipse cx="323.7366" cy="618.9964" fill="#F1F1F1" rx="100.2966" ry="39.0364" style="stroke:#181818;stroke-width:0.5;"/><text fill="#000000" font-family="sans-serif" font-size="14" lengthAdjust="spacing" textLength="39.6058" x="303.9337" y="599.2822">UC-11</text><text fill="#000000" font-family="sans-serif" font-size="14" lengthAdjust="spacing" textLength="102.2276" x="272.6228" y="618.3501">&#1059;&#1076;&#1072;&#1083;&#1080;&#1090;&#1100; &#1091;&#1089;&#1083;&#1091;&#1075;&#1091;</text><text fill="#000000" font-family="sans-serif" font-size="14" lengthAdjust="spacing" textLength="154.4474" x="246.5129" y="637.4181">(DELETE /services/${id})</text></g><!--entity UC12--><g class="entity" data-entity="UC12" data-source-line="17" data-uid="ent0016" id="entity_UC12"><ellipse cx="323.7388" cy="509.9997" fill="#F1F1F1" rx="129.9188" ry="34.7297" style="stroke:#181818;stroke-width:0.5;"/><text fill="#000000" font-family="sans-serif" font-size="14" lengthAdjust="spacing" textLength="39.6058" x="303.9359" y="494.2265">UC-12</text><text fill="#000000" font-family="sans-serif" font-size="14" lengthAdjust="spacing" textLength="228.8151" x="209.3312" y="513.2944">&#1053;&#1072;&#1079;&#1085;&#1072;&#1095;&#1080;&#1090;&#1100;/&#1091;&#1073;&#1088;&#1072;&#1090;&#1100; &#1091;&#1089;&#1083;&#1091;&#1075;&#1091; &#1084;&#1072;&#1089;&#1090;&#1077;&#1088;&#1091;</text><text fill="#000000" font-family="sans-serif" font-size="14" lengthAdjust="spacing" textLength="147.0554" x="250.2111" y="532.3624">(PUT /master-services)</text></g><!--entity UC13--><g class="entity" data-entity="UC13" data-source-line="18" data-uid="ent0017" id="entity_UC13"><ellipse cx="323.7366" cy="403.9952" fill="#F1F1F1" rx="100.5166" ry="36.3852" style="stroke:#181818;stroke-width:0.5;"/><text fill="#000000" font-family="sans-serif" font-size="14" lengthAdjust="spacing" textLength="39.6058" x="303.9337" y="386.8735">UC-13</text><text fill="#000000" font-family="sans-serif" font-size="14" lengthAdjust="spacing" textLength="167.0894" x="240.192" y="405.9415">&#1053;&#1072;&#1089;&#1090;&#1088;&#1086;&#1080;&#1090;&#1100; &#1088;&#1072;&#1073;&#1086;&#1095;&#1080;&#1081; &#1089;&#1083;&#1086;&#1090;</text><text fill="#000000" font-family="sans-serif" font-size="14" lengthAdjust="spacing" textLength="132.3975" x="257.5379" y="425.0094">(PUT /working-slots)</text></g><!--entity Client--><g class="entity" data-entity="Client" data-source-line="2" data-uid="ent0002" id="entity_Client"><ellipse cx="59.6009" cy="159.97" fill="#F1F1F1" rx="8" ry="8" style="stroke:#181818;stroke-width:0.5;"/><path d="M59.6009,167.97 L59.6009,194.97 M46.6009,175.97 L72.6009,175.97 M59.6009,194.97 L46.6009,209.97 M59.6009,194.97 L72.6009,209.97" fill="none" style="stroke:#181818;stroke-width:0.5;"/><text fill="#000000" font-family="sans-serif" font-size="14" lengthAdjust="spacing" textLength="48.4818" x="35.36" y="226.4359">&#1050;&#1083;&#1080;&#1077;&#1085;&#1090;</text></g><!--entity Admin--><g class="entity" data-entity="Admin" data-source-line="3" data-uid="ent0003" id="entity_Admin"><ellipse cx="59.6058" cy="812.97" fill="#F1F1F1" rx="8" ry="8" style="stroke:#181818;stroke-width:0.5;"/><path d="M59.6058,820.97 L59.6058,847.97 M46.6058,828.97 L72.6058,828.97 M59.6058,847.97 L46.6058,862.97 M59.6058,847.97 L72.6058,862.97" fill="none" style="stroke:#181818;stroke-width:0.5;"/><text fill="#000000" font-family="sans-serif" font-size="14" lengthAdjust="spacing" textLength="107.2116" x="6" y="879.4359">&#1040;&#1076;&#1084;&#1080;&#1085;&#1080;&#1089;&#1090;&#1088;&#1072;&#1090;&#1086;&#1088;</text></g><!--link Client to UC1--><g class="link" data-entity-1="Client" data-entity-2="UC1" data-source-line="21" data-uid="lnk18" id="link_Client_UC1"><path d="M83.98,208.68 C101.26,221.08 125.76,237.28 149.21,248 C176.48,260.47 201.7856,269.1003 230.0256,277.0703" fill="none" id="Client-to-UC1" style="stroke:#181818;stroke-width:1;"/><polygon fill="#181818" points="235.8,278.7,228.2248,272.4058,230.988,277.3419,226.0519,280.1051,235.8,278.7" style="stroke:#181818;stroke-width:1;"/></g><!--link Admin to UC1--><g class="link" data-entity-1="Admin" data-entity-2="UC1" data-source-line="22" data-uid="lnk19" id="link_Admin_UC1"><path d="M62.48,804.01 C68.23,698.69 88.99,417.13 149.21,350 C167.66,329.43 188.1555,318.6096 214.6955,311.1196" fill="none" id="Admin-to-UC1" style="stroke:#181818;stroke-width:1;"/><polygon fill="#181818" points="220.47,309.49,210.7219,308.0848,215.658,310.848,212.8948,315.7841,220.47,309.49" style="stroke:#181818;stroke-width:1;"/></g><!--link Admin to UC2--><g class="link" data-entity-1="Admin" data-entity-2="UC2" data-source-line="23" data-uid="lnk20" id="link_Admin_UC2"><path d="M62.36,883.92 C67.83,990.49 88.07,1278.26 149.21,1347 C171.26,1371.79 198.7498,1383.6926 230.3398,1390.6326" fill="none" id="Admin-to-UC2" style="stroke:#181818;stroke-width:1;"/><polygon fill="#181818" points="236.2,1391.92,228.2679,1386.082,231.3165,1390.8471,226.5513,1393.8957,236.2,1391.92" style="stroke:#181818;stroke-width:1;"/></g><!--link Client to UC3--><g class="link" data-entity-1="Client" data-entity-2="UC3" data-source-line="24" data-uid="lnk21" id="link_Client_UC3"><path d="M84.02,173.39 C101.31,161.04 125.81,144.85 149.21,134 C176.36,121.42 201.5043,112.5648 229.6243,104.2848" fill="none" id="Client-to-UC3" style="stroke:#181818;stroke-width:1;"/><polygon fill="#181818" points="235.38,102.59,225.6166,101.295,230.5836,104.0023,227.8763,108.9693,235.38,102.59" style="stroke:#181818;stroke-width:1;"/></g><!--link Client to UC4--><g class="link" data-entity-1="Client" data-entity-2="UC4" data-source-line="25" data-uid="lnk22" id="link_Client_UC4"><path d="M84.33,191 C116.91,191 171.36,191 223.24,191" fill="none" id="Client-to-UC4" style="stroke:#181818;stroke-width:1;"/><polygon fill="#181818" points="229.24,191,220.24,187,224.24,191,220.24,195,229.24,191" style="stroke:#181818;stroke-width:1;"/></g><!--link Admin to UC5--><g class="link" data-entity-1="Admin" data-entity-2="UC5" data-source-line="26" data-uid="lnk23" id="link_Admin_UC5"><path d="M64.65,883.9 C74.44,972.83 102.12,1183.51 149.21,1235 C162.88,1249.95 175.053,1258.5714 193.883,1266.6214" fill="none" id="Admin-to-UC5" style="stroke:#181818;stroke-width:1;"/><polygon fill="#181818" points="199.4,1268.98,192.6969,1261.7642,194.8025,1267.0145,189.5521,1269.1201,199.4,1268.98" style="stroke:#181818;stroke-width:1;"/></g><!--link Admin to UC6--><g class="link" data-entity-1="Admin" data-entity-2="UC6" data-source-line="27" data-uid="lnk24" id="link_Admin_UC6"><path d="M62.01,883.85 C66.3,944.26 83.25,1058.94 149.21,1125 C175.23,1151.05 207.6313,1163.5317 241.6213,1170.7617" fill="none" id="Admin-to-UC6" style="stroke:#181818;stroke-width:1;"/><polygon fill="#181818" points="247.49,1172.01,239.5192,1166.225,242.5994,1170.9697,237.8547,1174.05,247.49,1172.01" style="stroke:#181818;stroke-width:1;"/></g><!--link Admin to UC7--><g class="link" data-entity-1="Admin" data-entity-2="UC7" data-source-line="28" data-uid="lnk25" id="link_Admin_UC7"><path d="M71.78,883.79 C84.5,922.09 108.93,979.07 149.21,1013 C168.1,1028.91 185.9127,1038.3498 209.4427,1046.5298" fill="none" id="Admin-to-UC7" style="stroke:#181818;stroke-width:1;"/><polygon fill="#181818" points="215.11,1048.5,207.9225,1041.7665,210.3872,1046.8582,205.2956,1049.3229,215.11,1048.5" style="stroke:#181818;stroke-width:1;"/></g><!--link Admin to UC8--><g class="link" data-entity-1="Admin" data-entity-2="UC8" data-source-line="29" data-uid="lnk26" id="link_Admin_UC8"><path d="M113.26,880.3 C124.81,887.39 137.18,894.37 149.21,900 C177.88,913.42 204.8955,923.1348 234.1655,932.1448" fill="none" id="Admin-to-UC8" style="stroke:#181818;stroke-width:1;"/><polygon fill="#181818" points="239.9,933.91,232.4751,927.4392,235.1213,932.439,230.1215,935.0852,239.9,933.91" style="stroke:#181818;stroke-width:1;"/></g><!--link Admin to UC9--><g class="link" data-entity-1="Admin" data-entity-2="UC9" data-source-line="30" data-uid="lnk27" id="link_Admin_UC9"><path d="M113.65,844 C153.3,844 201.91,844 245.39,844" fill="none" id="Admin-to-UC9" style="stroke:#181818;stroke-width:1;"/><polygon fill="#181818" points="251.39,844,242.39,840,246.39,844,242.39,848,251.39,844" style="stroke:#181818;stroke-width:1;"/></g><!--link Admin to UC10--><g class="link" data-entity-1="Admin" data-entity-2="UC10" data-source-line="31" data-uid="lnk28" id="link_Admin_UC10"><path d="M113.26,807.7 C124.81,800.61 137.18,793.63 149.21,788 C174.01,776.39 196.1478,768.066 222.1578,759.706" fill="none" id="Admin-to-UC10" style="stroke:#181818;stroke-width:1;"/><polygon fill="#181818" points="227.87,757.87,218.0777,756.8158,223.1098,759.4,220.5257,764.4321,227.87,757.87" style="stroke:#181818;stroke-width:1;"/></g><!--link Admin to UC11--><g class="link" data-entity-1="Admin" data-entity-2="UC11" data-source-line="32" data-uid="lnk29" id="link_Admin_UC11"><path d="M72,804.13 C84.83,766.09 109.28,709.73 149.21,676 C172.59,656.25 197.244,644.9836 226.064,636.5036" fill="none" id="Admin-to-UC11" style="stroke:#181818;stroke-width:1;"/><polygon fill="#181818" points="231.82,634.81,222.0569,633.5131,227.0233,636.2214,224.3151,641.1878,231.82,634.81" style="stroke:#181818;stroke-width:1;"/></g><!--link Admin to UC12--><g class="link" data-entity-1="Admin" data-entity-2="UC12" data-source-line="33" data-uid="lnk30" id="link_Admin_UC12"><path d="M61.8,804.38 C65.81,743.72 82.37,627.96 149.21,562 C165.78,545.65 181.5932,536.3815 203.7832,528.6615" fill="none" id="Admin-to-UC12" style="stroke:#181818;stroke-width:1;"/><polygon fill="#181818" points="209.45,526.69,199.6354,525.8694,204.7276,528.3329,202.2641,533.4252,209.45,526.69" style="stroke:#181818;stroke-width:1;"/></g><!--link Admin to UC13--><g class="link" data-entity-1="Admin" data-entity-2="UC13" data-source-line="34" data-uid="lnk31" id="link_Admin_UC13"><path d="M64.72,804.24 C74.61,716.18 102.42,508.49 149.21,458 C169.69,435.9 193.2478,424.3354 221.9978,416.5654" fill="none" id="Admin-to-UC13" style="stroke:#181818;stroke-width:1;"/><polygon fill="#181818" points="227.79,415,218.0581,413.4866,222.9632,416.3045,220.1453,421.2096,227.79,415" style="stroke:#181818;stroke-width:1;"/></g><!--SRC=[TPJDZjCm58NtUGghOZ4ieZHDVpT8GwbWWGJIjBlPHAbf8zgaYbqG6etKdmKBkXWX910I2yGBf3DJJQ5jU0NxZRXE6dViARkSnFdEFTVs7U0t5D4GHNwlJr7NZx17_J0mN8-64Igmxsp3rcp5TdnMG2v1pO6F0oe_Nx5RjeK5ExRcKpxZ4nRp6Klu95rysXtwWM48fXlq1XWLdc9tJ3-WCw-Fk-C1ZWhema1eJB3d4lZSQPf5-pnWNrdCRlY4pzaTW6TyWS0d1fST_yHMw8G4xeZqG_huF3XvtceZIxv8VJjDMwUMWFgJBQ70X4yFp1LKdvZtuK1y_UeCa14cMF9AEiz9UGdKToiYyuK5OWcGX5td-3-7th5OShsqWyGQZmYEf86Z6vHr0mIFCVkRDdeXQUve5Fe17GfapYhhh0gmli7lMr7ClZgnNIbupgVtq6mjqAVjvWkLRJswyBkN5g4k7KkZYcvK1QClQIFYGnksO2FCLk9qoCA7Bg4uagYgZge1whDeeSMkOL_WuGWfgtEFsfT8mnuSjPnRqxbruFvADtpplmAVjLwssYsDcmFhEh1n9BDeAjl0yRtXSvaOjlkTxs4PkQ6HxEB3o3ee2voJZYQsYphNVX1Pm-Q1LQu4wfV95fVf1-3ku3J5_6C6jG2tp0Q0vg1qEClHaIV0rDjYwtVDTZAx_O19yWnW1KrFX3_xZOGTY5bEVnz6R_sWPv91UBWPjcDS6aOsmv1fFaadHJgbZggIkjHHPLbPMr5KLL4rHTKLrL3zYwhKgYkfqZ7-0G00]--></g></svg>